<?xml version="1.0" encoding="UTF-8" standalone="no"?>
<svg
   id="Layer_1"
   width="15.904456cm"
   height="4.2306609cm"
   viewBox="0 0 442.3154 119.82699"
   version="1.1"
   xmlns="http://www.w3.org/2000/svg"
   xmlns:svg="http://www.w3.org/2000/svg">
  <defs
     id="defs33">
    <style
       id="style31">.cls-1{fill:#fff;}.cls-2{fill:#141414;}.cls-3{fill:#789568;}</style>
  </defs>
  <rect
     style="fill:#ffffff;stroke:none;stroke-width:0.730062"
     id="rect279"
     width="323.57623"
     height="79.959946"
     x="119.90688"
     y="6.133029"
     ry="9.0705452" />
  <g
     id="g1029"
     transform="translate(-8.3000002,-7.0719981)">
    <path
       class="cls-2"
       d="m 176.61,33.26 h -30.63 v 15.73 h 27.2 v 8.54 h -27.2 v 16.74 h 30.63 v 8.79 H 136.19 V 24.48 h 40.42 v 8.79 z"
       id="path37" />
    <path
       class="cls-2"
       d="m 179.44,61.64 c 0,-13.22 9.12,-22.26 21.09,-22.26 9.04,0 16.99,4.44 20.17,14.98 l -8.29,3.01 c -2.26,-7.03 -6.19,-9.71 -11.88,-9.71 -6.19,0 -11.63,4.77 -11.63,13.98 0,9.21 5.44,14.06 11.63,14.06 5.69,0 9.62,-2.68 11.88,-9.71 L 220.7,69 c -3.18,10.55 -11.13,14.98 -20.17,14.98 -11.97,0 -21.09,-9.04 -21.09,-22.35 z"
       id="path39" />
    <path
       class="cls-2"
       d="m 223.38,61.64 c 0,-13.14 9.29,-22.26 21.84,-22.26 12.55,0 21.84,9.12 21.84,22.26 0,13.14 -9.29,22.35 -21.84,22.35 -12.55,0 -21.84,-9.12 -21.84,-22.35 z m 34.23,0 c 0,-8.79 -5.27,-13.89 -12.39,-13.89 -7.12,0 -12.3,5.11 -12.3,13.89 0,8.78 5.19,14.06 12.3,14.06 7.11,0 12.39,-5.19 12.39,-14.06 z"
       id="path41" />
    <path
       class="cls-2"
       d="m 333.48,55.19 v 27.87 h -9.29 V 56.95 c 0,-5.94 -3.18,-9.37 -7.62,-9.37 -5.11,0 -8.79,3.52 -8.79,9.71 v 25.78 h -9.29 V 56.96 c 0,-5.94 -3.18,-9.37 -7.62,-9.37 -5.11,0 -8.79,3.52 -8.79,9.71 v 25.78 h -9.29 V 40.31 h 9.29 V 46 c 2.51,-4.6 6.61,-6.53 11.3,-6.53 5.52,0 10.13,2.76 12.55,7.45 2.59,-5.27 7.37,-7.45 12.64,-7.45 8.62,0 14.9,6.19 14.9,15.73 z"
       id="path43" />
    <path
       class="cls-2"
       d="m 338.95,61.64 c 0,-13.14 9.29,-22.26 21.84,-22.26 12.55,0 21.84,9.12 21.84,22.26 0,13.14 -9.29,22.35 -21.84,22.35 -12.55,0 -21.84,-9.12 -21.84,-22.35 z m 34.23,0 c 0,-8.79 -5.27,-13.89 -12.39,-13.89 -7.12,0 -12.3,5.11 -12.3,13.89 0,8.78 5.19,14.06 12.3,14.06 7.11,0 12.39,-5.19 12.39,-14.06 z"
       id="path45" />
    <path
       class="cls-2"
       d="m 425.44,55.86 v 27.2 h -9.29 V 57.37 c 0,-6.11 -3.6,-9.79 -8.62,-9.79 -5.77,0 -9.88,3.85 -9.88,10.21 v 25.28 h -9.29 V 40.3 h 9.29 v 6.03 c 2.68,-4.85 7.36,-6.95 12.3,-6.95 8.96,0 15.48,6.53 15.48,16.49 z"
       id="path47" />
    <path
       class="cls-2"
       d="m 431.5,28.24 c 0,-3.6 2.68,-5.86 6.19,-5.86 3.51,0 6.11,2.26 6.11,5.86 0,3.6 -2.68,5.77 -6.11,5.77 -3.43,0 -6.19,-2.18 -6.19,-5.77 z m 10.71,12.05 v 42.77 h -9.29 V 40.29 Z"
       id="path49" />
  </g>
  <circle
     style="fill:#ffffff;stroke:none;stroke-width:0.792424"
     id="path1087"
     cx="53.564999"
     cy="50.043629"
     r="41.848194" />
  <g
     id="g1032"
     transform="translate(-8.3000002,-7.0719981)">
    <path
       class="cls-3"
       d="M 84.41,126.94 H 39.28 c -1.97,0 -3.4,-2.29 -2.85,-4.6 l 1.43,-6.09 c 0.36,-1.55 1.53,-2.61 2.85,-2.61 h 42.26 c 1.33,0 2.49,1.07 2.85,2.61 l 1.43,6.09 c 0.54,2.3 -0.88,4.6 -2.85,4.6 z"
       id="path51" />
    <path
       class="cls-3"
       d="M 105.53,7.02 H 18.21 c -5.45,0 -9.91,4.46 -9.91,9.91 v 79.15 c 0,5.45 4.46,9.91 9.91,9.91 h 87.31 c 5.45,0 9.91,-4.46 9.91,-9.91 V 16.94 c 0,-5.45 -4.46,-9.91 -9.91,-9.91 z M 100.34,60.72 64.29,60.7 92.07,32.92 c 5.27,6.7 8.43,15.15 8.43,24.34 0,1.17 -0.06,2.32 -0.16,3.46 z M 87.23,27.78 59.3,55.71 59.28,17.9 c 0.6,-0.03 1.21,-0.05 1.82,-0.05 10.03,0 19.18,3.75 26.13,9.92 z M 52.24,18.87 V 62.52 L 31.5,83.26 c -6.1,-6.94 -9.81,-16.03 -9.81,-26 0,-18.71 13.05,-34.37 30.54,-38.39 z m 8.86,77.79 c -9.37,0 -17.96,-3.27 -24.73,-8.73 L 56.54,67.76 h 42.53 c -4.6,16.66 -19.85,28.9 -37.98,28.9 z"
       id="path53" />
  </g>
</svg>
